<svg id="Component_116_3" data-name="Component 116 – 3" xmlns="http://www.w3.org/2000/svg" width="65" height="65" viewBox="0 0 65 65">
  <g id="Rectangle_795" data-name="Rectangle 795" fill="#f6e2e2" stroke="#f6e2e2" stroke-width="1">
    <rect width="65" height="65" rx="8" stroke="none"/>
    <rect x="0.5" y="0.5" width="64" height="64" rx="7.5" fill="none"/>
  </g>
  <g id="Group_142" data-name="Group 142" transform="translate(21 21)">
    <path id="Path_130" data-name="Path 130" d="M10,12h4" fill="none" stroke="#000" stroke-linecap="round" stroke-linejoin="round" stroke-width="2"/>
    <path id="Path_131" data-name="Path 131" d="M10,8h4" fill="none" stroke="#000" stroke-linecap="round" stroke-linejoin="round" stroke-width="2"/>
    <path id="Path_132" data-name="Path 132" d="M14,21V18a2,2,0,0,0-4,0v3" fill="none" stroke="#000" stroke-linecap="round" stroke-linejoin="round" stroke-width="2"/>
    <path id="Path_133" data-name="Path 133" d="M6,10H4a2,2,0,0,0-2,2v7a2,2,0,0,0,2,2H20a2,2,0,0,0,2-2V9a2,2,0,0,0-2-2H18" fill="none" stroke="#000" stroke-linecap="round" stroke-linejoin="round" stroke-width="2"/>
    <path id="Path_134" data-name="Path 134" d="M6,21V5A2,2,0,0,1,8,3h8a2,2,0,0,1,2,2V21" fill="none" stroke="#000" stroke-linecap="round" stroke-linejoin="round" stroke-width="2"/>
  </g>
</svg>
