<svg id="Component_117_67" data-name="Component 117 – 67" xmlns="http://www.w3.org/2000/svg" width="65" height="65" viewBox="0 0 65 65">
  <g id="Rectangle_798" data-name="Rectangle 798" fill="#a20f0f" stroke="#a20f0f" stroke-width="1">
    <rect width="65" height="65" rx="8" stroke="none"/>
    <rect x="0.5" y="0.5" width="64" height="64" rx="7.5" fill="none"/>
  </g>
  <g id="Group_152" data-name="Group 152" transform="translate(21 21)">
    <path id="Path_147" data-name="Path 147" d="M6,22a2,2,0,0,1-2-2V4A2,2,0,0,1,6,2h8a2.4,2.4,0,0,1,1.7.706l3.588,3.588A2.4,2.4,0,0,1,20,8V20a2,2,0,0,1-2,2Z" fill="none" stroke="#fff" stroke-linecap="round" stroke-linejoin="round" stroke-width="2"/>
    <path id="Path_148" data-name="Path 148" d="M14,2V7a1,1,0,0,0,1,1h5" fill="none" stroke="#fff" stroke-linecap="round" stroke-linejoin="round" stroke-width="2"/>
    <path id="Path_149" data-name="Path 149" d="M10,9H8" fill="none" stroke="#fff" stroke-linecap="round" stroke-linejoin="round" stroke-width="2"/>
    <path id="Path_150" data-name="Path 150" d="M16,13H8" fill="none" stroke="#fff" stroke-linecap="round" stroke-linejoin="round" stroke-width="2"/>
    <path id="Path_151" data-name="Path 151" d="M16,17H8" fill="none" stroke="#fff" stroke-linecap="round" stroke-linejoin="round" stroke-width="2"/>
  </g>
</svg>
