<svg xmlns="http://www.w3.org/2000/svg" width="22" height="20" viewBox="0 0 22 20">
  <g id="Group_1059" data-name="Group 1059" transform="translate(-1 -2)">
    <path id="Path_383" data-name="Path 383" d="M10,12h4" fill="none" stroke="#a20f0f" stroke-linecap="round" stroke-linejoin="round" stroke-width="2"/>
    <path id="Path_384" data-name="Path 384" d="M10,8h4" fill="none" stroke="#a20f0f" stroke-linecap="round" stroke-linejoin="round" stroke-width="2"/>
    <path id="Path_385" data-name="Path 385" d="M14,21V18a2,2,0,0,0-4,0v3" fill="none" stroke="#a20f0f" stroke-linecap="round" stroke-linejoin="round" stroke-width="2"/>
    <path id="Path_386" data-name="Path 386" d="M6,10H4a2,2,0,0,0-2,2v7a2,2,0,0,0,2,2H20a2,2,0,0,0,2-2V9a2,2,0,0,0-2-2H18" fill="none" stroke="#a20f0f" stroke-linecap="round" stroke-linejoin="round" stroke-width="2"/>
    <path id="Path_387" data-name="Path 387" d="M6,21V5A2,2,0,0,1,8,3h8a2,2,0,0,1,2,2V21" fill="none" stroke="#a20f0f" stroke-linecap="round" stroke-linejoin="round" stroke-width="2"/>
  </g>
</svg>
