<svg xmlns="http://www.w3.org/2000/svg" width="20" height="22" viewBox="0 0 20 22">
  <g id="Group_174" data-name="Group 174" transform="translate(-2 -1)">
    <path id="Path_178" data-name="Path 178" d="M15,2a2,2,0,0,1,1.414.586l4,4A2,2,0,0,1,21,8v7a2,2,0,0,1-2,2H11a2,2,0,0,1-2-2V4a2,2,0,0,1,2-2Z" fill="none" stroke="#a20f0f" stroke-linecap="round" stroke-linejoin="round" stroke-width="2"/>
    <path id="Path_179" data-name="Path 179" d="M15,2V6a2,2,0,0,0,2,2h4" fill="none" stroke="#a20f0f" stroke-linecap="round" stroke-linejoin="round" stroke-width="2"/>
    <path id="Path_180" data-name="Path 180" d="M5,7A2,2,0,0,0,3,9V20a2,2,0,0,0,2,2h8a2,2,0,0,0,1.732-1" fill="none" stroke="#a20f0f" stroke-linecap="round" stroke-linejoin="round" stroke-width="2"/>
  </g>
</svg>
