<svg xmlns="http://www.w3.org/2000/svg" width="50" height="50" viewBox="0 0 50 50">
  <g id="Group_275" data-name="Group 275" transform="translate(-1320 -407)">
    <g id="Ellipse_67" data-name="Ellipse 67" transform="translate(1320 407)" fill="#fff" stroke="#dee2e6" stroke-width="1">
      <circle cx="25" cy="25" r="25" stroke="none"/>
      <circle cx="25" cy="25" r="24.5" fill="none"/>
    </g>
    <g id="Group_274" data-name="Group 274" transform="translate(1333 420)">
      <path id="Path_244" data-name="Path 244" d="M10.268,21a2,2,0,0,0,3.464,0" fill="none" stroke="#a9a9a9" stroke-linecap="round" stroke-linejoin="round" stroke-width="2"/>
      <path id="Path_245" data-name="Path 245" d="M22,8a10.283,10.283,0,0,0-2-6" fill="none" stroke="#a9a9a9" stroke-linecap="round" stroke-linejoin="round" stroke-width="2"/>
      <path id="Path_246" data-name="Path 246" d="M3.262,15.326A1,1,0,0,0,4,17H20a1,1,0,0,0,.74-1.673C19.41,13.956,18,12.5,18,8A6,6,0,0,0,6,8c0,4.5-1.411,5.956-2.738,7.326" fill="none" stroke="#a9a9a9" stroke-linecap="round" stroke-linejoin="round" stroke-width="2"/>
      <path id="Path_247" data-name="Path 247" d="M4,2A10.283,10.283,0,0,0,2,8" fill="none" stroke="#a9a9a9" stroke-linecap="round" stroke-linejoin="round" stroke-width="2"/>
    </g>
  </g>
</svg>
