<svg id="Component_142_1" data-name="Component 142 – 1" xmlns="http://www.w3.org/2000/svg" width="65" height="65" viewBox="0 0 65 65">
  <path id="Path_188" data-name="Path 188" d="M8,0H57a8,8,0,0,1,8,8V57a8,8,0,0,1-8,8H8a8,8,0,0,1-8-8V8A8,8,0,0,1,8,0Z" fill="none"/>
  <g id="Group_167" data-name="Group 167" transform="translate(21 21)">
    <path id="Path_154" data-name="Path 154" d="M20,10c0,4.993-5.539,10.193-7.4,11.8a1,1,0,0,1-1.2,0C9.539,20.193,4,14.993,4,10a8,8,0,0,1,16,0" fill="none" stroke="#fff" stroke-linecap="round" stroke-linejoin="round" stroke-width="2"/>
    <circle id="Ellipse_79" data-name="Ellipse 79" cx="3" cy="3" r="3" transform="translate(9 7)" fill="none" stroke="#fff" stroke-linecap="round" stroke-linejoin="round" stroke-width="2"/>
  </g>
</svg>
