<svg id="Component_144_1" data-name="Component 144 – 1" xmlns="http://www.w3.org/2000/svg" width="65" height="65" viewBox="0 0 65 65">
  <path id="Path_189" data-name="Path 189" d="M8,0H57a8,8,0,0,1,8,8V57a8,8,0,0,1-8,8H8a8,8,0,0,1-8-8V8A8,8,0,0,1,8,0Z" fill="none"/>
  <path id="Path_156" data-name="Path 156" d="M20,13c0,5-3.5,7.5-7.66,8.95a1,1,0,0,1-.67-.01C7.5,20.5,4,18,4,13V6A1,1,0,0,1,5,5a10.58,10.58,0,0,0,6.24-2.72,1.17,1.17,0,0,1,1.52,0A10.545,10.545,0,0,0,19,5a1,1,0,0,1,1,1Z" transform="translate(20.5 20.498)" fill="none" stroke="#fff" stroke-linecap="round" stroke-linejoin="round" stroke-width="2"/>
</svg>
