<svg id="Component_115_2" data-name="Component 115 – 2" xmlns="http://www.w3.org/2000/svg" width="45" height="45" viewBox="0 0 45 45">
  <g id="Rectangle_792" data-name="Rectangle 792" fill="none" stroke="#fff" stroke-width="2">
    <rect width="45" height="45" rx="8" stroke="none"/>
    <rect x="1" y="1" width="43" height="43" rx="7" fill="none"/>
  </g>
  <path id="Path_124" data-name="Path 124" d="M20,13c0,5-3.5,7.5-7.66,8.95a1,1,0,0,1-.67-.01C7.5,20.5,4,18,4,13V6A1,1,0,0,1,5,5a10.58,10.58,0,0,0,6.24-2.72,1.17,1.17,0,0,1,1.52,0A10.545,10.545,0,0,0,19,5a1,1,0,0,1,1,1Z" transform="translate(10.5 10.499)" fill="none" stroke="#fff" stroke-linecap="round" stroke-linejoin="round" stroke-width="2"/>
</svg>
