<svg id="Component_145_1" data-name="Component 145 – 1" xmlns="http://www.w3.org/2000/svg" width="65" height="65" viewBox="0 0 65 65">
  <path id="Path_190" data-name="Path 190" d="M8,0H57a8,8,0,0,1,8,8V57a8,8,0,0,1-8,8H8a8,8,0,0,1-8-8V8A8,8,0,0,1,8,0Z" fill="none"/>
  <path id="Path_155" data-name="Path 155" d="M4,14a1,1,0,0,1-.78-1.63l9.9-10.2a.5.5,0,0,1,.86.46L12.06,8.65A1,1,0,0,0,13,10h7a1,1,0,0,1,.78,1.63l-9.9,10.2a.5.5,0,0,1-.86-.46l1.92-6.02A1,1,0,0,0,11,14Z" transform="translate(20.5 20.5)" fill="none" stroke="#fff" stroke-linecap="round" stroke-linejoin="round" stroke-width="2"/>
</svg>
